<svg xmlns="http://www.w3.org/2000/svg" viewBox="-141 -60 1350 1470" width="512" height="512" xmlns:c2pa="http://c2pa.org/manifest"><metadata><c2pa:manifest>AAAWgmp1bWIAAAAeanVtZGMycGEAEQAQgAAAqgA4m3EDYzJwYQAAABZcanVtYgAAAEdqdW1kYzJtYQARABCAAACqADibcQN1cm46YzJwYTpkMGFhZTc2OC1jOGRkLTRlZGUtODFmMS00NDQ0ZDM1YzQ0ZTMAAAADl2p1bWIAAAApanVtZGMyYXMAEQAQgAAAqgA4m3EDYzJwYS5hc3NlcnRpb25zAAAAALxqdW1iAAAARGp1bWRjYm9yABEAEIAAAKoAOJtxE2MycGEuaW5ncmVkaWVudC52MwAAAAAYYzJzaDKJhN7QuOG63ZLR59DWrFAAAABwY2JvcqNpZGM6Zm9ybWF0bWltYWdlL3N2Zyt4bWxqaW5zdGFuY2VJRHgseG1wOmlpZDo3YzcyMTM2MS1lZGVjLTRlNzEtYjA2MS04MWViMjdhYTVjZDFscmVsYXRpb25zaGlwaHBhcmVudE9mAAAB4mp1bWIAAABBanVtZGNib3IAEQAQgAAAqgA4m3ETYzJwYS5hY3Rpb25zLnYyAAAAABhjMnNoRkzoleJvAIChXcZBi8NTxQAAAZljYm9yomdhY3Rpb25zgqJmYWN0aW9ua2MycGEub3BlbmVkanBhcmFtZXRlcnOha2luZ3JlZGllbnRzgaJjdXJseC1zZWxmI2p1bWJmPWMycGEuYXNzZXJ0aW9ucy9jMnBhLmluZ3JlZGllbnQudjNkaGFzaFggsl+51BB9GspmOsBRplSnyXJAPwDmPaanHAPj2Fo7dJykZmFjdGlvbngdY29tLmFudGhyb3BpYy5jbGF1ZGUucHJvdmlkZWRqcGFyYW1ldGVyc6F4H2NvbS5hbnRocm9waWMub3JpZ2luLWNvbmZpZGVuY2VndW5rbm93bmtkZXNjcmlwdGlvbnhmQ2xhdWRlIHByb3ZpZGVkIHRoaXMgZmlsZSBhdCB0aGUgcmVxdWVzdCBvZiBhIHVzZXIgYW5kIG1heSBoYXZlIGNyZWF0ZWQgb3IgbW9kaWZpZWQgdGhlIGZpbGUgY29udGVudHMubXNvZnR3YXJlQWdlbnShZG5hbWVmQ2xhdWRlcmFsbEFjdGlvbnNJbmNsdWRlZPUAAADIanVtYgAAAEBqdW1kY2JvcgARABCAAACqADibcRNjMnBhLmhhc2guZGF0YQAAAAAYYzJzaOM+e/DG0kfEmLWa1HieSSkAAACAY2JvcqVjYWxnZnNoYTI1NmNwYWRNAAAAAAAAAAAAAAAAAGRoYXNoWCBTbY8TY9XfaFE6L+bmk2eBJnLxZ8Lrf1L/ziGVzGYtPmRuYW1lbmp1bWJmIG1hbmlmZXN0amV4Y2x1c2lvbnOBomVzdGFydBidZmxlbmd0aBkeBAAAAj5qdW1iAAAAJ2p1bWRjMmNsABEAEIAAAKoAOJtxA2MycGEuY2xhaW0udjIAAAACD2Nib3KlY2FsZ2ZzaGEyNTZpc2lnbmF0dXJleE1zZWxmI2p1bWJmPS9jMnBhL3VybjpjMnBhOmQwYWFlNzY4LWM4ZGQtNGVkZS04MWYxLTQ0NDRkMzVjNDRlMy9jMnBhLnNpZ25hdHVyZWppbnN0YW5jZUlEeCx4bXA6aWlkOjk1OTRkMWQzLTZlODctNGVlNi04ZmJhLTBkYzc0ZDM1ODQyZXJjcmVhdGVkX2Fzc2VydGlvbnODomN1cmx4LXNlbGYjanVtYmY9YzJwYS5hc3NlcnRpb25zL2MycGEuaW5ncmVkaWVudC52M2RoYXNoWCCyX7nUEH0aymY6wFGmVKfJckA/AOY9pqccA+PYWjt0nKJjdXJseCpzZWxmI2p1bWJmPWMycGEuYXNzZXJ0aW9ucy9jMnBhLmFjdGlvbnMudjJkaGFzaFgg1e/3/UiJpI0rGeAckP/viGlm3YjD0dJmBeb4DE/bbvSiY3VybHgpc2VsZiNqdW1iZj1jMnBhLmFzc2VydGlvbnMvYzJwYS5oYXNoLmRhdGFkaGFzaFgg00mRi8Ti914AIvHV/8CT9uwpfCj4RbTideI/kG6rgsJ0Y2xhaW1fZ2VuZXJhdG9yX2luZm+jZG5hbWVvQW50aHJvcGljIEZpbGVzZ3ZlcnNpb25lMS4wLjBrc3BlY1ZlcnNpb25lMi40LjAAABA4anVtYgAAAChqdW1kYzJjcwARABCAAACqADibcQNjMnBhLnNpZ25hdHVyZQAAABAIY2JvctKEWQISogEmGCFZAgowggIGMIIBjaADAgECAhRA5aAK7sI50L64g/oGQgU9Z1UTADAKBggqhkjOPQQDAzBJMRcwFQYDVQQKEw5BbnRocm9waWMsIFBCQzEuMCwGA1UEAxMlQW50aHJvcGljIENvbnRlbnQgQ3JlZGVudGlhbHMgUm9vdCBDQTAeFw0yNjA4MDcxODQzNTZaFw0yODA4MDYxOTQzNTZaMEQxFzAVBgNVBAoTDkFudGhyb3BpYywgUEJDMSkwJwYDVQQDEyBBbnRocm9waWMgQ2xhdWRlIENvbnRlbnQgU2lnbmluZzBZMBMGByqGSM49AgEGCCqGSM49AwEHA0IABJh6CmvLUBgFFNU0vUKlOVtE6djd17L5SuwX0LemFisBM3dkd/3cyjxFA3Qo5S46fX0/ihY0VZ7mfb9KF703t5OjWDBWMA4GA1UdDwEB/wQEAwIHgDAVBgNVHSUEDjAMBgorBgEEAYPoXgIBMAwGA1UdEwEB/wQCMAAwHwYDVR0jBBgwFoAUzlHiBIFOZFsj+OPEz5o+nMHXXMIwCgYIKoZIzj0EAwMDZwAwZAIwMXMdFJ4BetLLVY7ORuE9noqbbAZOZn/aArXyTwFAZfKrPzxF2vPoJNf1+UCdg1XGAjBwX1zd9WGqYkqmL5SFqw1QySjr1zJfpJM9+1rdDwSPLMOPOjKuiXjoU/pUUeG9RwmhY3BhZFkNngAAAAAAAAAAAAAAAAAAAAAAAAAAAAAAAAAAAAAAAAAAAAAAAAAAAAAAAAAAAAAAAAAAAAAAAAAAAAAAAAAAAAAAAAAAAAAAAAAAAAAAAAAAAAAAAAAAAAAAAAAAAAAAAAAAAAAAAAAAAAAAAAAAAAAAAAAAAAAAAAAAAAAAAAAAAAAAAAAAAAAAAAAAAAAAAAAAAAAAAAAAAAAAAAAAAAAAAAAAAAAAAAAAAAAAAAAAAAAAAAAAAAAAAAAAAAAAAAAAAAAAAAAAAAAAAAAAAAAAAAAAAAAAAAAAAAAAAAAAAAAAAAAAAAAAAAAAAAAAAAAAAAAAAAAAAAAAAAAAAAAAAAAAAAAAAAAAAAAAAAAAAAAAAAAAAAAAAAAAAAAAAAAAAAAAAAAAAAAAAAAAAAAAAAAAAAAAAAAAAAAAAAAAAAAAAAAAAAAAAAAAAAAAAAAAAAAAAAAAAAAAAAAAAAAAAAAAAAAAAAAAAAAAAAAAAAAAAAAAAAAAAAAAAAAAAAAAAAAAAAAAAAAAAAAAAAAAAAAAAAAAAAAAAAAAAAAAAAAAAAAAAAAAAAAAAAAAAAAAAAAAAAAAAAAAAAAAAAAAAAAAAAAAAAAAAAAAAAAAAAAAAAAAAAAAAAAAAAAAAAAAAAAAAAAAAAAAAAAAAAAAAAAAAAAAAAAAAAAAAAAAAAAAAAAAAAAAAAAAAAAAAAAAAAAAAAAAAAAAAAAAAAAAAAAAAAAAAAAAAAAAAAAAAAAAAAAAAAAAAAAAAAAAAAAAAAAAAAAAAAAAAAAAAAAAAAAAAAAAAAAAAAAAAAAAAAAAAAAAAAAAAAAAAAAAAAAAAAAAAAAAAAAAAAAAAAAAAAAAAAAAAAAAAAAAAAAAAAAAAAAAAAAAAAAAAAAAAAAAAAAAAAAAAAAAAAAAAAAAAAAAAAAAAAAAAAAAAAAAAAAAAAAAAAAAAAAAAAAAAAAAAAAAAAAAAAAAAAAAAAAAAAAAAAAAAAAAAAAAAAAAAAAAAAAAAAAAAAAAAAAAAAAAAAAAAAAAAAAAAAAAAAAAAAAAAAAAAAAAAAAAAAAAAAAAAAAAAAAAAAAAAAAAAAAAAAAAAAAAAAAAAAAAAAAAAAAAAAAAAAAAAAAAAAAAAAAAAAAAAAAAAAAAAAAAAAAAAAAAAAAAAAAAAAAAAAAAAAAAAAAAAAAAAAAAAAAAAAAAAAAAAAAAAAAAAAAAAAAAAAAAAAAAAAAAAAAAAAAAAAAAAAAAAAAAAAAAAAAAAAAAAAAAAAAAAAAAAAAAAAAAAAAAAAAAAAAAAAAAAAAAAAAAAAAAAAAAAAAAAAAAAAAAAAAAAAAAAAAAAAAAAAAAAAAAAAAAAAAAAAAAAAAAAAAAAAAAAAAAAAAAAAAAAAAAAAAAAAAAAAAAAAAAAAAAAAAAAAAAAAAAAAAAAAAAAAAAAAAAAAAAAAAAAAAAAAAAAAAAAAAAAAAAAAAAAAAAAAAAAAAAAAAAAAAAAAAAAAAAAAAAAAAAAAAAAAAAAAAAAAAAAAAAAAAAAAAAAAAAAAAAAAAAAAAAAAAAAAAAAAAAAAAAAAAAAAAAAAAAAAAAAAAAAAAAAAAAAAAAAAAAAAAAAAAAAAAAAAAAAAAAAAAAAAAAAAAAAAAAAAAAAAAAAAAAAAAAAAAAAAAAAAAAAAAAAAAAAAAAAAAAAAAAAAAAAAAAAAAAAAAAAAAAAAAAAAAAAAAAAAAAAAAAAAAAAAAAAAAAAAAAAAAAAAAAAAAAAAAAAAAAAAAAAAAAAAAAAAAAAAAAAAAAAAAAAAAAAAAAAAAAAAAAAAAAAAAAAAAAAAAAAAAAAAAAAAAAAAAAAAAAAAAAAAAAAAAAAAAAAAAAAAAAAAAAAAAAAAAAAAAAAAAAAAAAAAAAAAAAAAAAAAAAAAAAAAAAAAAAAAAAAAAAAAAAAAAAAAAAAAAAAAAAAAAAAAAAAAAAAAAAAAAAAAAAAAAAAAAAAAAAAAAAAAAAAAAAAAAAAAAAAAAAAAAAAAAAAAAAAAAAAAAAAAAAAAAAAAAAAAAAAAAAAAAAAAAAAAAAAAAAAAAAAAAAAAAAAAAAAAAAAAAAAAAAAAAAAAAAAAAAAAAAAAAAAAAAAAAAAAAAAAAAAAAAAAAAAAAAAAAAAAAAAAAAAAAAAAAAAAAAAAAAAAAAAAAAAAAAAAAAAAAAAAAAAAAAAAAAAAAAAAAAAAAAAAAAAAAAAAAAAAAAAAAAAAAAAAAAAAAAAAAAAAAAAAAAAAAAAAAAAAAAAAAAAAAAAAAAAAAAAAAAAAAAAAAAAAAAAAAAAAAAAAAAAAAAAAAAAAAAAAAAAAAAAAAAAAAAAAAAAAAAAAAAAAAAAAAAAAAAAAAAAAAAAAAAAAAAAAAAAAAAAAAAAAAAAAAAAAAAAAAAAAAAAAAAAAAAAAAAAAAAAAAAAAAAAAAAAAAAAAAAAAAAAAAAAAAAAAAAAAAAAAAAAAAAAAAAAAAAAAAAAAAAAAAAAAAAAAAAAAAAAAAAAAAAAAAAAAAAAAAAAAAAAAAAAAAAAAAAAAAAAAAAAAAAAAAAAAAAAAAAAAAAAAAAAAAAAAAAAAAAAAAAAAAAAAAAAAAAAAAAAAAAAAAAAAAAAAAAAAAAAAAAAAAAAAAAAAAAAAAAAAAAAAAAAAAAAAAAAAAAAAAAAAAAAAAAAAAAAAAAAAAAAAAAAAAAAAAAAAAAAAAAAAAAAAAAAAAAAAAAAAAAAAAAAAAAAAAAAAAAAAAAAAAAAAAAAAAAAAAAAAAAAAAAAAAAAAAAAAAAAAAAAAAAAAAAAAAAAAAAAAAAAAAAAAAAAAAAAAAAAAAAAAAAAAAAAAAAAAAAAAAAAAAAAAAAAAAAAAAAAAAAAAAAAAAAAAAAAAAAAAAAAAAAAAAAAAAAAAAAAAAAAAAAAAAAAAAAAAAAAAAAAAAAAAAAAAAAAAAAAAAAAAAAAAAAAAAAAAAAAAAAAAAAAAAAAAAAAAAAAAAAAAAAAAAAAAAAAAAAAAAAAAAAAAAAAAAAAAAAAAAAAAAAAAAAAAAAAAAAAAAAAAAAAAAAAAAAAAAAAAAAAAAAAAAAAAAAAAAAAAAAAAAAAAAAAAAAAAAAAAAAAAAAAAAAAAAAAAAAAAAAAAAAAAAAAAAAAAAAAAAAAAAAAAAAAAAAAAAAAAAAAAAAAAAAAAAAAAAAAAAAAAAAAAAAAAAAAAAAAAAAAAAAAAAAAAAAAAAAAAAAAAAAAAAAAAAAAAAAAAAAAAAAAAAAAAAAAAAAAAAAAAAAAAAAAAAAAAAAAAAAAAAAAAAAAAAAAAAAAAAAAAAAAAAAAAAAAAAAAAAAAAAAAAAAAAAAAAAAAAAAAAAAAAAAAAAAAAAAAAAAAAAAAAAAAAAAAAAAAAAAAAAAAAAAAAAAAAAAAAAAAAAAAAAAAAAAAAAAAAAAAAAAAAAAAAAAAAAAAAAAAAAAAAAAAAAAAAAAAAAAAAAAAAAAAAAAAAAAAAAAAAAAAAAAAAAAAAAAAAAAAAAAAAAAAAAAAAAAAAAAAAAAAAAAAAAAAAAAAAAAAAAAAAAAAAAAAAAAAAAAAAAAAAAAAAAAAAAAAAAAAAAAAAAAAAAAAAAAAAAAAAAAAAAAAAAAAAAAAAAAAAAAAAAAAAAAAAAAAAAAAAAAAAAAAAAAAAAAAAAAAAAAAAAAAAAAAAAAAAAAAAAAAAAAAAAAAAAAAAAAAAAAAAAAAAAAAAAAAAAAAAAAAAAAAAAAAAAAAAAAAAAAAAAAAAAAAAAAAAAAAAAAAAAAAAAAAAAAAAAAAAAAAAAAAAAAAAAAAAAAAAAAAAAAAAAAAAAAAAAAAAAAAAAAAAAAAAAAAAAAAAAAAAAAAAAAAAAAAAAAAAAAAAAAAAAAAAAAAAAAAAAAAAAAAAAAAAAAAAAAAAAAAAAAAAAAAAAAAAAAAAAAAAAAAAAAAAAAAAAAAAAAAAAAAAAAAAAAAAAAAAAAAAAAAAAAAAAAAAAAAAAAAAAAAAAAAAAAAAAAAAAAAAAAAAAAAAAAAAAAAAAAAAAAAAAAAAAAAAAAAAAAAAAAAAAAAAAAAAAAAAAAAAAAAAAAAAAAAAAAAAAAAAAAAAAAAAAAAAAAAAAAAAAAAAAAAAAAAAAAAAAAAAAAAAAAAAAAAAAAAAAAAAAAAAAAAAAAAAAAAAAAAAAAAAAAAAAAAAAAAAAAAAAAAAAAAAAAAAAAAAAAAAAAAAAAAAAAAAAAAAAAAAAAAAAAAAAAAAAAAAAAAAAAAAAAAAAAAAAAAAAAAAAAAAAAAAAAAAAAAAAAAAAAAAAAAAAAAAAAAAAAAAAAAAAAAAAAAAAAAAAAAAAAAAAAAAAAAAAAAAAAAAAAAAAAAAAAAAAAAAAAAAAAAAAAAAAAAAAAAAAAAAAAAAAAAAAAAAAAAAAAAAAAAAAAAAAAAAAAAAAAAAAAAAAAAAAAAAAAAAAAAAAAAAAAAAAAAAAAAAAAAAAAAAAAAAAAAAAAAAAAAAAAAAAAAAAAAAAAAAAAAAAAAAAAAAAAAAAAAAAAAAAAAAAAAAAAAAAAAAAAAAAAAAAAAAAAAAAAAAAAAAAAAAAAAAAAAAAAAAAAAAAAAAAAAAAAAAAAAAAAAAAAAAAAAAAAAAAAAAAAAAAAAAAAAAAAAPZYQDYTlgrI/an6DgQnmU69Uo587iEpi/CDX8glIxO6+lWuKGlMU7zTpDq8T5wVK97drgpQjvKpWo3vdo/eBxEv6HY=</c2pa:manifest></metadata><g transform="translate(0.000000,1350.000000) scale(0.100000,-0.100000)" fill="#5A9BD8" stroke="none">
<path d="M132 13368 c-7 -9 -11 -964 -14 -3088 -4 -2929 -2 -3560 14 -3575 14
-14 46 7 78 51 18 26 54 59 79 75 25 17 62 49 81 73 19 25 63 68 97 96 35 29
65 61 68 70 3 10 31 42 63 72 31 29 80 78 107 108 28 30 68 71 90 91 22 20 54
52 70 70 17 19 56 53 86 77 31 23 62 53 68 65 7 12 49 51 92 86 62 51 82 73
89 102 23 83 28 683 23 2517 -3 1058 -2 1934 1 1947 4 14 21 32 39 41 29 16
182 17 2042 16 2879 -2 3356 -9 3461 -50 27 -11 78 -23 114 -27 36 -4 85 -17
110 -30 25 -12 73 -27 107 -34 35 -7 86 -22 115 -35 29 -13 69 -26 89 -30 21
-4 48 -15 61 -26 14 -10 38 -22 54 -26 16 -4 49 -17 74 -30 25 -13 50 -24 56
-24 6 0 75 -41 155 -91 79 -50 153 -95 164 -99 11 -4 63 -43 116 -86 53 -44
121 -97 150 -119 58 -43 329 -311 329 -326 0 -4 28 -41 63 -81 90 -104 163
-201 181 -240 9 -18 34 -55 57 -83 22 -27 51 -70 65 -95 14 -25 31 -56 39 -70
13 -23 41 -84 108 -231 14 -31 30 -74 36 -95 6 -22 22 -61 36 -88 14 -27 25
-57 25 -66 0 -9 14 -53 30 -98 17 -46 30 -93 30 -105 0 -12 9 -51 20 -87 13
-41 26 -131 35 -245 9 -99 22 -218 30 -265 17 -97 18 -191 5 -300 -15 -117
-30 -274 -39 -406 -6 -82 -17 -146 -35 -203 -14 -45 -26 -92 -26 -105 0 -13
-11 -43 -24 -68 -13 -25 -27 -65 -31 -89 -4 -24 -18 -64 -30 -90 -13 -25 -27
-63 -31 -85 -3 -21 -19 -64 -35 -94 -15 -30 -32 -66 -38 -80 -6 -14 -30 -61
-54 -105 -50 -94 -74 -111 -126 -89 -19 8 -44 22 -54 32 -19 17 -50 35 -187
112 -41 23 -84 50 -95 60 -11 11 -43 29 -70 41 -28 12 -57 28 -65 35 -9 7 -36
20 -60 29 -24 9 -51 22 -60 29 -8 8 -35 19 -60 26 -25 6 -54 20 -65 30 -16 14
-145 60 -169 60 -3 0 -6 -6 -6 -14 0 -16 55 -66 73 -66 7 0 29 -9 49 -20 20
-11 62 -28 93 -39 30 -11 70 -32 87 -46 25 -21 38 -25 63 -21 27 5 33 3 43
-18 8 -17 25 -29 54 -36 23 -7 53 -23 65 -36 12 -13 33 -24 46 -24 14 0 39
-15 60 -35 22 -21 46 -35 61 -35 14 0 37 -11 52 -25 14 -13 36 -27 48 -31 18
-6 42 -22 94 -65 16 -13 7 -46 -23 -79 -12 -14 -28 -36 -35 -50 -7 -13 -24
-33 -37 -43 -12 -10 -23 -25 -23 -32 0 -7 -11 -27 -25 -43 -14 -17 -25 -36
-25 -43 0 -7 -43 -56 -95 -108 -52 -53 -151 -153 -221 -224 -69 -70 -134 -132
-144 -137 -32 -17 -60 -12 -70 14 -5 14 -18 30 -29 36 -11 6 -32 22 -45 35
-14 14 -34 25 -46 25 -12 0 -25 10 -32 25 -6 14 -23 28 -37 31 -28 6 -40 11
-111 49 -25 13 -59 24 -75 24 -19 1 -35 9 -43 21 -7 11 -23 20 -38 20 -14 0
-35 11 -48 25 -13 14 -30 25 -38 25 -9 0 -32 7 -51 15 -20 8 -47 15 -60 15
-13 0 -49 14 -80 30 -62 33 -93 37 -122 16 -29 -21 -12 -43 40 -48 26 -3 59
-15 75 -26 25 -19 97 -39 182 -49 23 -3 38 -11 41 -22 2 -10 18 -21 35 -24 16
-3 47 -18 67 -32 21 -14 45 -25 54 -25 9 0 27 -7 39 -16 13 -9 49 -26 80 -38
51 -20 84 -40 208 -124 56 -37 40 -87 -41 -129 -16 -9 -43 -27 -59 -40 -16
-13 -61 -42 -101 -64 -40 -21 -80 -48 -90 -59 -10 -11 -23 -20 -29 -20 -6 0
-42 -16 -80 -35 -39 -19 -75 -35 -81 -35 -7 0 -20 -9 -30 -20 -9 -10 -39 -26
-65 -35 -27 -9 -54 -22 -60 -30 -6 -8 -33 -17 -58 -21 -26 -4 -74 -19 -107
-34 -33 -16 -75 -31 -94 -35 -19 -4 -57 -18 -85 -31 -28 -13 -67 -24 -87 -24
-20 0 -67 -9 -103 -21 -37 -11 -102 -25 -144 -31 -50 -7 -495 -13 -1277 -17
-1148 -6 -1201 -7 -1231 -25 -17 -10 -36 -28 -44 -39 -20 -33 -32 -324 -26
-657 3 -168 8 -318 12 -333 15 -64 -63 -60 1237 -63 775 -2 1201 -6 1237 -13
87 -17 187 -56 228 -91 66 -56 113 -104 128 -133 8 -15 37 -60 64 -101 28 -40
53 -87 56 -105 9 -46 38 -38 42 12 3 32 -2 42 -27 65 -17 14 -31 34 -31 42 0
9 -11 31 -25 50 -14 19 -25 39 -25 45 0 6 -31 43 -70 83 -54 57 -78 75 -105
79 -40 6 -58 30 -53 71 3 25 6 27 45 24 23 -2 62 4 88 12 25 9 59 16 76 16 16
0 42 9 58 21 19 14 58 24 127 33 54 8 115 21 135 29 19 9 75 23 123 31 48 8
102 23 119 32 18 8 65 27 106 40 40 14 97 36 126 49 28 14 67 25 86 25 26 0
46 10 84 43 60 51 146 107 166 107 16 0 105 53 154 92 16 13 45 31 65 41 74
36 200 119 242 158 18 17 69 57 113 89 44 32 95 71 112 85 18 15 50 29 71 32
35 5 41 2 69 -33 17 -22 42 -61 55 -89 14 -27 60 -116 102 -197 42 -80 76
-153 76 -160 0 -8 11 -36 24 -64 62 -128 85 -187 96 -239 6 -31 20 -76 31 -99
10 -24 24 -78 29 -120 6 -42 20 -96 31 -121 13 -30 23 -84 29 -155 7 -81 13
-115 26 -127 12 -12 15 -27 10 -57 -3 -23 -1 -116 5 -208 9 -138 8 -192 -5
-313 -21 -190 -21 -185 9 -185 17 0 29 9 40 30 17 33 20 66 5 75 -15 9 -12 41
6 56 14 11 15 39 10 229 -7 278 -15 355 -40 373 -16 12 -18 23 -14 86 6 84
-10 184 -36 224 -13 20 -19 49 -21 100 -1 75 -11 104 -46 149 -16 19 -22 42
-24 83 -1 40 -6 60 -17 66 -9 5 -19 27 -23 48 -3 21 -22 63 -41 92 -29 45 -34
62 -32 99 3 44 3 44 -35 53 -35 8 -38 12 -37 41 3 51 1 56 -25 66 -22 8 -25
16 -25 54 0 38 -4 48 -30 66 -16 12 -30 30 -30 40 0 32 -11 50 -40 65 -19 10
-32 29 -44 64 -24 74 -21 88 22 110 20 10 79 63 130 118 51 54 108 114 127
133 34 36 140 162 217 259 112 140 145 165 172 134 97 -112 126 -150 126 -168
0 -9 13 -29 29 -44 15 -14 35 -40 44 -57 9 -17 23 -36 31 -43 9 -8 16 -22 16
-33 0 -11 13 -33 29 -48 16 -16 32 -46 35 -66 4 -20 28 -63 55 -98 26 -33 53
-80 59 -104 9 -28 21 -47 37 -54 20 -9 24 -18 23 -47 -1 -24 10 -55 30 -91 17
-30 36 -74 43 -97 9 -32 19 -44 40 -52 28 -10 28 -10 22 -73 -5 -58 -3 -66 21
-95 28 -33 34 -54 35 -119 1 -27 8 -48 23 -64 15 -16 25 -43 30 -80 4 -30 10
-79 14 -108 5 -41 12 -57 31 -69 21 -14 24 -21 18 -52 -4 -19 -1 -71 6 -116 9
-64 17 -84 37 -102 25 -21 25 -22 31 -235 7 -274 6 -482 -3 -738 -8 -190 -10
-209 -34 -260 -21 -45 -26 -74 -30 -165 -2 -71 -9 -115 -17 -125 -7 -8 -17
-33 -21 -55 -4 -22 -13 -53 -19 -70 -7 -16 -16 -52 -20 -80 -4 -27 -13 -61
-20 -75 -7 -14 -18 -49 -25 -79 -7 -30 -21 -69 -32 -87 -10 -17 -22 -62 -27
-98 -6 -57 -12 -71 -35 -90 -22 -17 -29 -33 -33 -71 -3 -28 -13 -59 -23 -70
-9 -11 -22 -35 -28 -53 -6 -19 -23 -47 -37 -64 -15 -18 -25 -42 -25 -61 0 -38
-6 -47 -42 -70 -29 -18 -37 -57 -19 -86 7 -11 17 0 41 42 18 32 36 59 40 62 5
3 16 29 26 58 9 28 20 57 24 62 24 30 153 328 165 380 8 33 23 78 35 100 11
21 20 47 20 57 0 10 11 46 25 79 13 33 29 97 35 142 6 45 19 112 30 148 11 36
26 110 35 165 8 54 21 120 29 145 29 96 40 242 40 564 0 333 -10 466 -44 590
-10 39 -21 95 -25 125 -3 30 -17 89 -30 130 -13 41 -29 116 -36 165 -6 50 -19
106 -30 125 -20 38 -69 180 -93 270 -17 65 -55 156 -124 300 -27 58 -53 116
-57 129 -4 14 -25 52 -46 85 -22 34 -53 88 -70 121 -72 140 -86 165 -127 213
-23 27 -49 65 -57 83 -8 19 -42 66 -76 104 -85 96 -99 122 -99 177 0 36 6 54
28 79 29 34 57 78 93 144 12 22 29 49 39 60 9 11 21 33 24 49 4 16 18 43 32
59 13 16 24 37 24 46 0 10 13 35 30 56 16 20 32 54 36 74 4 20 17 56 29 81 51
99 84 177 90 210 4 19 18 51 31 70 14 21 27 61 33 100 5 36 18 85 29 110 11
25 26 74 32 110 6 36 18 75 26 88 8 12 23 68 34 125 10 56 26 134 35 172 9 39
20 153 25 255 5 102 14 236 20 298 13 121 10 238 -14 567 -16 218 -24 279 -49
380 -8 33 -18 86 -21 119 -4 34 -15 70 -27 87 -11 16 -25 57 -30 91 -6 35 -19
82 -29 106 -11 24 -25 74 -31 111 -6 36 -21 82 -34 101 -12 19 -26 49 -30 65
-3 17 -17 44 -30 61 -13 17 -27 47 -30 67 -4 20 -13 41 -21 48 -8 6 -23 42
-34 80 -11 37 -25 71 -31 75 -5 3 -21 29 -35 57 -13 29 -30 63 -38 77 -7 14
-30 59 -51 100 -21 41 -48 86 -61 101 -13 14 -24 29 -24 33 0 8 -80 141 -114
191 -11 17 -46 58 -76 92 -122 137 -141 160 -168 199 -70 106 -552 614 -582
614 -6 0 -35 22 -63 49 -29 26 -68 56 -87 66 -19 10 -61 37 -92 61 -31 23 -70
49 -86 58 -15 8 -35 22 -43 32 -7 9 -32 25 -54 36 -74 36 -124 65 -155 92 -17
14 -39 26 -48 26 -10 0 -33 10 -52 23 -19 13 -51 29 -70 37 -61 23 -154 72
-175 90 -11 10 -44 23 -73 29 -29 6 -69 19 -90 29 -20 11 -58 24 -83 30 -25 7
-66 23 -90 37 -24 13 -59 25 -77 25 -18 0 -60 11 -93 25 -43 19 -92 29 -171
36 -69 6 -127 17 -154 29 -27 11 -88 23 -157 29 -61 6 -157 21 -212 33 l-100
22 -3206 3 c-2578 3 -3208 1 -3217 -9z M2430 11060 c-20 -20 -20 -35 -22 -952
-2 -513 -3 -1170 -3 -1459 l0 -527 -31 -33 c-18 -19 -110 -114 -205 -211 -96
-97 -244 -250 -329 -340 -85 -90 -193 -201 -240 -248 -47 -47 -157 -161 -245
-253 -88 -92 -250 -256 -359 -365 -546 -541 -833 -833 -865 -882 -15 -22 -16
-250 -14 -2833 2 -2114 5 -2812 14 -2823 10 -12 489 -14 3258 -14 1999 0 3308
4 3407 10 98 6 178 16 205 26 24 8 96 22 159 29 63 8 131 21 151 29 19 8 76
20 125 26 49 7 128 25 177 41 48 16 91 29 96 29 6 0 21 4 35 10 17 6 24 14 20
25 -11 27 -94 19 -159 -15 -41 -21 -69 -29 -103 -29 -82 2 -156 -13 -183 -36
-23 -19 -43 -23 -144 -28 -94 -4 -127 -10 -168 -29 -51 -23 -59 -24 -292 -23
-160 1 -247 5 -261 13 l-22 12 3 447 c1 247 3 451 4 455 3 18 79 58 108 58 18
0 50 6 70 14 25 9 101 16 221 20 140 5 190 10 214 22 17 9 54 20 82 24 73 11
143 29 201 52 28 11 65 24 84 28 19 5 45 20 58 35 22 23 30 25 69 19 40 -6 46
-4 73 25 21 22 38 31 61 31 18 0 44 8 58 19 15 10 76 42 135 72 187 93 265
141 301 186 10 13 48 39 85 58 36 18 86 54 111 80 25 26 57 53 72 61 15 7 29
23 33 33 3 11 14 22 23 26 16 5 100 83 169 157 18 19 33 43 33 52 0 10 12 21
29 27 16 6 50 37 76 69 26 32 53 61 60 64 8 3 17 21 21 41 3 20 15 40 26 46
11 6 26 26 34 44 8 19 23 45 34 57 71 80 80 93 80 118 0 21 8 33 35 49 19 11
35 27 35 35 0 9 14 31 31 51 25 28 31 44 31 77 -1 32 5 45 23 60 13 10 27 34
31 53 3 19 13 40 21 46 25 21 43 66 43 107 0 28 6 43 20 53 16 11 21 28 24 84
3 38 9 71 15 73 6 2 21 12 33 22 20 16 24 30 28 119 5 96 6 102 30 114 21 11
25 20 26 57 0 25 4 62 8 83 6 28 4 43 -8 62 -9 14 -23 25 -31 25 -15 0 -20
-20 -30 -124 -3 -33 -14 -79 -25 -104 -11 -24 -24 -70 -29 -102 -12 -76 -65
-248 -102 -331 -16 -36 -29 -70 -29 -76 0 -6 -7 -16 -15 -23 -8 -7 -21 -34
-29 -59 -17 -57 -65 -154 -100 -200 -14 -19 -26 -40 -26 -47 0 -6 -12 -27 -27
-47 -16 -20 -41 -59 -58 -88 -16 -28 -44 -68 -60 -88 -33 -38 -58 -73 -90
-126 -52 -85 -430 -466 -520 -525 -33 -22 -73 -51 -90 -65 -65 -56 -103 -83
-165 -120 -36 -22 -72 -44 -80 -51 -26 -21 -164 -91 -192 -98 -15 -3 -44 -17
-64 -31 -20 -14 -44 -25 -52 -25 -8 0 -35 -11 -58 -25 -24 -14 -69 -34 -101
-44 -32 -11 -76 -26 -98 -35 -22 -8 -54 -15 -70 -16 -17 0 -49 -9 -70 -21 -22
-11 -77 -27 -122 -35 -45 -8 -98 -21 -119 -30 -21 -9 -106 -21 -198 -29 -89
-8 -192 -19 -231 -26 -53 -9 -694 -12 -2680 -11 -1656 0 -2619 4 -2635 10 -14
6 -35 20 -47 33 l-22 24 -2 2026 c-1 1614 1 2030 11 2050 34 66 125 165 480
520 954 958 1762 1777 1788 1813 l27 39 -3 986 c-2 542 0 1037 3 1100 6 92 11
117 26 132 18 18 44 19 707 18 378 -1 1009 -4 1402 -8 l715 -7 55 -27 c30 -15
64 -27 74 -27 57 0 246 -156 298 -245 10 -17 34 -56 54 -89 31 -50 39 -76 55
-180 23 -150 24 -230 3 -359 -17 -105 -42 -164 -126 -290 -48 -71 -221 -217
-258 -217 -10 0 -35 -12 -56 -26 -28 -19 -59 -29 -109 -35 -38 -4 -550 -8
-1136 -9 -886 0 -1068 -2 -1078 -14 -6 -7 -18 -35 -26 -62 -21 -69 -22 -879
-1 -968 8 -32 20 -62 27 -67 7 -4 578 -8 1268 -8 835 0 1281 -4 1331 -11 135
-19 172 9 70 53 -33 15 -60 31 -60 36 0 9 60 31 86 31 5 0 41 16 80 35 38 19
74 35 79 35 6 0 30 16 54 35 26 21 55 35 71 35 17 0 44 14 70 35 23 19 45 35
49 35 12 0 190 154 207 179 9 12 28 28 44 36 27 14 79 65 147 144 16 17 47 52
71 76 27 29 42 53 42 70 0 14 7 28 15 31 8 4 15 18 15 34 0 16 11 42 25 58 13
16 34 49 45 73 11 24 29 60 40 79 11 19 20 45 20 58 0 13 14 54 30 92 17 38
30 76 30 85 0 8 9 33 19 53 39 77 67 351 57 558 -12 264 -23 326 -93 524 -8
25 -25 74 -38 110 -29 84 -120 258 -152 292 -14 14 -28 40 -32 56 -3 17 -33
61 -66 99 -94 107 -282 290 -363 352 -78 59 -183 126 -217 138 -11 3 -47 21
-80 38 -33 18 -73 35 -90 39 -16 4 -38 14 -47 23 -10 8 -50 24 -90 34 -40 10
-107 27 -148 38 -41 11 -118 25 -170 31 -52 6 -120 15 -150 20 -30 5 -913 9
-1962 9 -1895 1 -1908 1 -1928 -19z M6968 7303 c-10 -2 -18 -10 -18 -17 0 -9
21 -15 58 -19 31 -4 67 -10 79 -13 18 -5 25 -1 32 17 5 16 5 26 -3 31 -12 8
-119 9 -148 1z M3424 6741 c-38 -39 -190 -191 -339 -339 -425 -425 -604 -614
-633 -668 -26 -49 -26 -51 -33 -344 -10 -478 2 -2908 15 -2926 32 -44 6 -43
2135 -45 1506 -2 2021 0 2037 9 12 6 24 9 27 5 4 -3 9 2 13 11 5 12 10 14 19
6 17 -14 256 23 316 48 25 11 60 23 79 27 40 9 197 81 205 95 3 6 30 17 60 26
30 8 57 20 60 25 4 5 25 19 48 30 23 12 65 40 92 64 28 23 70 55 95 70 46 29
169 151 218 215 14 19 49 62 77 95 29 33 72 96 96 140 25 44 50 89 57 100 27
47 82 173 82 188 0 8 13 39 29 69 16 32 31 80 35 114 4 32 12 76 17 98 6 21 8
41 5 44 -3 3 -17 0 -31 -6 -35 -16 -55 -69 -55 -144 0 -49 -4 -66 -21 -85 -13
-13 -25 -44 -30 -73 -5 -35 -18 -62 -39 -87 -22 -25 -31 -44 -30 -67 3 -49 1
-54 -20 -61 -11 -4 -27 -22 -35 -42 -15 -34 -46 -79 -85 -118 -10 -11 -24 -35
-31 -53 -6 -18 -19 -37 -28 -42 -10 -5 -38 -35 -62 -67 -24 -32 -48 -61 -54
-65 -5 -4 -32 -28 -60 -53 -108 -98 -193 -164 -219 -171 -15 -3 -32 -17 -38
-30 -9 -18 -22 -25 -59 -30 -34 -5 -53 -13 -63 -29 -10 -15 -29 -25 -58 -29
-29 -5 -52 -16 -70 -36 -24 -27 -30 -29 -77 -23 -48 5 -52 4 -81 -27 -35 -37
-49 -40 -187 -41 -75 -1 -86 -4 -119 -29 -19 -16 -42 -26 -50 -23 -9 3 -14 0
-12 -8 2 -8 -2 -13 -9 -12 -19 4 -115 5 -481 4 -263 -1 -349 -4 -370 -14 -22
-11 -86 -12 -327 -6 -332 9 -984 16 -2095 25 -404 3 -760 8 -790 12 l-55 7
-20 55 c-20 54 -20 78 -18 1455 1 770 4 1473 6 1562 l3 162 55 48 c102 89 299
302 299 322 0 6 18 22 40 36 22 14 40 29 40 33 0 4 17 24 38 44 20 21 66 65
100 99 35 34 71 73 79 86 9 13 32 33 52 43 20 10 45 32 56 49 31 47 202 193
223 189 14 -3 17 -15 18 -63 0 -33 6 -71 13 -83 17 -32 18 -2616 1 -2667 -9
-27 -8 -40 4 -64 19 -36 20 -63 5 -78 -9 -9 -9 -23 1 -57 7 -25 17 -47 24 -49
8 -3 10 402 9 1591 -1 878 -5 1602 -7 1609 -3 7 -9 13 -14 13 -4 0 -39 -31
-78 -69z M7930 5339 c-15 -28 -5 -66 20 -74 15 -5 20 -15 20 -41 0 -29 6 -38
35 -55 30 -18 35 -26 35 -60 0 -29 7 -44 27 -63 19 -18 26 -35 27 -64 1 -26
10 -51 26 -72 27 -34 38 -83 39 -166 1 -58 29 -104 63 -104 16 0 19 5 14 28
-4 15 -13 66 -20 113 -8 47 -23 103 -34 125 -11 21 -23 50 -27 64 -16 56 -149
312 -180 350 -33 39 -34 40 -45 19z M8242 4563 c-13 -23 -14 -53 -16 -308 -1
-141 3 -198 13 -222 7 -18 17 -33 21 -33 22 0 22 529 0 569 -6 11 -10 10 -18
-6z M7149 4509 c-11 -18 -13 -36 -8 -69 11 -69 10 -260 -2 -324 -6 -32 -8 -60
-5 -63 2 -3 14 -2 25 2 33 10 44 64 31 147 -8 55 -8 89 1 139 12 71 6 145 -15
174 -11 16 -13 16 -27 -6z M7090 3959 c-7 -23 -23 -59 -36 -78 -13 -20 -24
-41 -24 -46 0 -6 -33 -45 -74 -86 -81 -82 -177 -145 -242 -159 -24 -5 -60 -20
-81 -32 -37 -23 -45 -23 -498 -31 -253 -4 -929 -6 -1503 -5 -573 2 -1042 0
-1042 -3 0 -19 32 -30 68 -24 21 3 51 1 67 -5 22 -8 324 -11 1080 -10 577 1
1172 4 1320 7 336 7 358 7 421 -2 46 -7 53 -5 79 19 22 21 37 26 71 24 36 -1
51 5 90 35 26 21 54 37 63 37 9 0 43 26 76 57 33 32 74 65 90 73 27 14 30 19
28 61 -2 43 0 48 28 59 63 26 89 98 50 134 -19 17 -20 17 -31 -25z M9981 2217
c-13 -6 -29 -25 -35 -42 -17 -47 -48 -97 -78 -126 -16 -15 -28 -38 -28 -51 0
-30 -8 -40 -51 -66 -30 -18 -38 -30 -43 -65 -6 -36 -12 -45 -36 -54 -20 -8
-30 -18 -30 -33 0 -12 -20 -40 -45 -64 -25 -25 -45 -48 -45 -53 0 -5 -54 -65
-120 -132 -66 -67 -120 -125 -120 -129 0 -4 -20 -20 -45 -36 -25 -15 -52 -41
-60 -57 -8 -15 -52 -60 -97 -100 -46 -40 -89 -83 -96 -96 -7 -12 -23 -25 -36
-29 -13 -3 -28 -16 -34 -29 -7 -16 -25 -28 -51 -35 -21 -5 -41 -16 -44 -24 -3
-7 -34 -32 -69 -56 -34 -24 -80 -58 -101 -76 -20 -19 -43 -34 -51 -34 -7 0
-19 -7 -26 -15 -7 -8 -30 -20 -51 -25 -22 -6 -39 -15 -39 -20 0 -5 -18 -14
-39 -21 -22 -6 -53 -24 -70 -39 -16 -15 -47 -36 -68 -46 -24 -12 -40 -28 -43
-44 -5 -22 -11 -25 -54 -25 -49 0 -57 -6 -70 -47 -4 -15 -13 -17 -51 -11 -37
5 -50 2 -68 -14 -31 -28 -55 -40 -105 -48 -23 -4 -57 -18 -73 -33 -23 -18 -46
-27 -86 -30 -52 -4 -54 -6 -51 -31 3 -24 6 -26 48 -23 24 2 78 18 120 36 41
19 89 37 107 41 18 3 42 14 55 24 13 10 40 24 60 30 20 7 47 20 60 30 13 10
34 22 48 26 14 4 46 20 71 36 25 16 50 29 56 29 5 0 28 13 50 29 21 16 74 47
116 71 42 23 79 46 83 51 3 5 26 20 52 34 26 13 70 42 97 64 28 22 66 49 85
60 73 40 501 437 606 562 11 13 60 69 108 124 49 55 104 123 122 150 18 28 47
68 63 90 17 22 39 56 50 75 11 19 38 60 60 90 23 30 52 78 66 105 14 28 34 65
46 83 22 34 18 39 -20 19z"/>
</g>
<g transform="translate(0.000000,1350.000000) scale(0.100000,-0.100000)" fill="#22B3A2" stroke="none">
<path d="M6258 12253 c7 -3 16 -2 19 1 4 3 -2 6 -13 5 -11 0 -14 -3 -6 -6z
M1222 9505 c0 -16 2 -22 5 -12 2 9 2 23 0 30 -3 6 -5 -1 -5 -18z M1222 9345
c0 -16 2 -22 5 -12 2 9 2 23 0 30 -3 6 -5 -1 -5 -18z M1224 8890 c0 -102 2
-143 3 -92 2 50 2 134 0 185 -1 50 -3 9 -3 -93z M7767 8183 c-4 -3 -7 -17 -7
-30 0 -14 -17 -41 -42 -68 -24 -24 -55 -59 -71 -76 -68 -79 -120 -130 -147
-144 -16 -8 -35 -24 -44 -36 -17 -25 -195 -179 -207 -179 -4 0 -26 -16 -49
-35 -26 -21 -53 -35 -70 -35 -16 0 -45 -14 -71 -35 -24 -19 -48 -35 -54 -35
-5 0 -41 -16 -79 -35 -39 -19 -75 -35 -80 -35 -26 0 -86 -22 -86 -31 0 -5 27
-21 60 -36 55 -24 80 -53 45 -53 -31 0 -13 -18 31 -30 38 -11 47 -11 54 0 9
15 115 26 154 16 23 -6 24 -9 15 -33 -5 -14 -8 -27 -7 -28 10 -8 49 -25 57
-25 6 0 11 7 11 15 0 17 30 35 60 35 11 0 46 -13 77 -30 31 -16 67 -30 80 -30
13 0 40 -7 60 -15 19 -8 42 -15 51 -15 8 0 25 -11 38 -25 13 -14 34 -25 48
-25 15 0 31 -9 38 -20 8 -12 24 -20 43 -21 16 0 50 -11 75 -24 71 -38 83 -43
111 -49 14 -3 31 -17 37 -31 7 -15 20 -25 32 -25 12 0 32 -11 46 -25 13 -13
34 -29 45 -35 11 -6 24 -22 29 -36 10 -26 38 -31 70 -14 10 5 75 67 144 137
70 71 169 171 221 224 52 52 95 101 95 108 0 7 11 26 25 43 14 16 25 36 25 43
0 7 11 22 23 32 13 10 30 30 37 43 7 14 23 36 35 50 30 33 39 66 23 79 -52 43
-76 59 -94 65 -12 4 -34 18 -48 31 -15 14 -38 25 -52 25 -15 0 -39 14 -61 35
-21 20 -46 35 -60 35 -13 0 -34 11 -46 24 -12 13 -42 29 -65 36 -29 7 -46 19
-54 36 -10 21 -16 23 -43 18 -25 -4 -38 0 -63 21 -17 14 -57 35 -89 46 -32 11
-67 26 -78 33 -11 7 -36 18 -56 25 -43 14 -84 54 -76 75 4 9 -5 18 -24 26 -16
7 -34 21 -40 31 -10 20 -21 24 -32 12z M7494 7115 c25 -19 36 -19 36 0 0 10
-10 15 -27 15 -27 -1 -27 -1 -9 -15z M9605 6770 c-21 -8 -54 -43 -133 -142
-79 -98 -184 -223 -217 -258 -19 -19 -76 -79 -127 -133 -51 -55 -110 -108
-130 -118 -43 -22 -46 -36 -22 -110 12 -35 25 -54 44 -64 29 -15 40 -33 40
-65 0 -10 14 -28 30 -40 26 -18 30 -28 30 -66 0 -38 3 -46 25 -54 26 -10 28
-15 25 -66 -1 -29 2 -33 37 -41 38 -9 38 -9 35 -53 -2 -37 3 -54 32 -99 19
-29 38 -71 41 -92 4 -21 14 -43 23 -48 11 -6 16 -26 17 -66 2 -41 8 -64 24
-83 35 -45 45 -74 46 -149 2 -51 8 -80 21 -100 26 -40 42 -140 36 -224 -4 -63
-2 -74 14 -86 25 -18 33 -95 40 -373 5 -190 4 -218 -10 -229 -18 -15 -21 -47
-6 -56 15 -9 12 -42 -6 -77 -13 -25 -20 -29 -45 -26 -23 4 -29 1 -29 -14 0
-10 7 -18 15 -18 8 0 22 -11 31 -25 12 -19 14 -34 8 -62 -4 -21 -8 -58 -8 -83
-1 -37 -5 -46 -26 -57 -24 -12 -25 -18 -30 -114 -4 -89 -8 -103 -28 -119 -12
-10 -27 -20 -33 -22 -6 -2 -12 -35 -15 -73 -3 -56 -8 -73 -24 -84 -14 -10 -20
-25 -20 -53 0 -41 -18 -86 -43 -107 -8 -6 -18 -27 -21 -46 -4 -19 -18 -43 -31
-53 -18 -15 -24 -28 -23 -60 0 -33 -6 -49 -31 -77 -17 -20 -31 -42 -31 -51 0
-8 -16 -24 -35 -35 -27 -16 -35 -28 -35 -49 0 -25 -9 -38 -80 -118 -11 -12
-26 -38 -34 -57 -8 -18 -23 -38 -34 -44 -11 -6 -23 -26 -26 -46 -4 -20 -13
-38 -21 -41 -7 -3 -34 -32 -60 -64 -26 -32 -60 -63 -76 -69 -17 -6 -29 -17
-29 -27 0 -9 -15 -33 -32 -52 -70 -74 -154 -152 -170 -157 -9 -4 -20 -15 -23
-26 -4 -10 -18 -26 -33 -33 -15 -8 -47 -35 -72 -61 -25 -26 -75 -62 -111 -80
-37 -19 -75 -45 -85 -58 -36 -45 -114 -93 -301 -186 -59 -30 -120 -62 -135
-72 -14 -11 -40 -19 -58 -19 -23 0 -40 -9 -61 -31 -27 -29 -33 -31 -73 -25
-39 6 -47 4 -69 -19 -13 -15 -39 -30 -58 -35 -19 -4 -56 -17 -84 -28 -58 -23
-128 -41 -201 -52 -28 -4 -65 -15 -82 -24 -24 -12 -74 -17 -214 -22 -120 -4
-196 -11 -221 -20 -20 -8 -52 -14 -70 -14 -29 0 -105 -40 -108 -58 -1 -4 -3
-208 -4 -455 l-3 -447 22 -12 c14 -8 101 -12 261 -13 233 -1 241 0 292 23 41
19 74 25 168 29 101 5 121 9 144 28 27 23 101 38 183 36 34 0 62 8 103 29 64
34 148 42 159 15 3 -9 12 -12 22 -8 15 5 15 7 0 15 -9 5 -16 19 -16 32 0 21 5
24 54 28 39 3 62 12 85 30 16 15 50 29 73 33 50 8 74 20 105 48 18 16 31 19
68 14 38 -6 47 -4 51 11 13 41 21 47 70 47 43 0 49 3 54 25 3 16 19 32 43 44
21 10 52 31 68 46 17 15 48 33 70 39 21 7 39 16 39 21 0 5 17 14 39 20 21 5
44 17 51 25 7 8 19 15 26 15 8 0 31 15 51 34 21 18 67 52 101 76 35 24 66 49
69 56 3 8 23 19 44 24 26 7 44 19 51 35 6 13 21 26 34 29 13 4 29 17 36 29 7
13 50 56 96 96 45 40 89 85 97 100 8 16 35 42 60 57 25 16 45 32 45 36 0 4 54
62 120 129 66 67 120 127 120 132 0 5 20 28 45 53 25 24 45 52 45 64 0 15 10
25 30 33 24 9 30 18 36 54 5 35 13 47 43 65 43 26 51 36 51 66 0 13 12 36 28
51 30 29 61 80 78 126 7 18 24 36 42 44 29 13 31 17 25 57 -5 38 -3 44 23 60
38 24 44 33 44 71 0 19 10 43 25 61 14 17 31 45 37 64 6 18 19 42 28 53 10 11
20 42 23 70 4 38 11 54 33 71 23 19 29 33 35 90 5 36 17 81 27 98 11 18 25 57
32 87 7 30 18 65 25 79 7 14 16 48 20 75 4 28 13 64 20 80 6 17 15 48 19 70 4
22 14 47 21 55 8 10 15 54 17 125 4 91 9 120 30 165 24 51 26 70 34 260 9 256
10 464 3 738 -6 213 -6 214 -31 235 -20 18 -28 38 -37 102 -7 45 -10 97 -6
116 6 31 3 38 -18 52 -19 12 -26 28 -31 69 -4 29 -10 78 -14 108 -5 37 -15 64
-30 80 -15 16 -22 37 -23 64 -1 65 -7 86 -35 119 -24 29 -26 37 -21 95 6 63 6
63 -22 73 -21 8 -31 20 -40 52 -7 23 -26 67 -43 97 -20 36 -31 67 -30 91 1 29
-3 38 -23 47 -16 7 -28 26 -37 54 -6 24 -33 71 -59 104 -27 35 -51 78 -55 98
-3 20 -19 50 -35 66 -16 15 -29 37 -29 48 0 11 -7 25 -16 33 -8 7 -22 26 -31
43 -9 17 -29 43 -44 57 -16 15 -29 35 -29 44 0 18 -30 59 -87 121 -18 19 -33
39 -33 43 0 14 -23 19 -45 11z M3337 6582 c-48 -43 -98 -94 -112 -112 -14 -19
-39 -42 -55 -50 -17 -9 -48 -37 -69 -63 -21 -25 -58 -65 -82 -87 -71 -64 -119
-114 -119 -122 0 -4 -18 -19 -40 -33 -22 -14 -40 -30 -40 -36 0 -20 -197 -233
-299 -322 l-55 -48 -3 -162 c-2 -89 -5 -792 -6 -1562 -2 -1377 -2 -1401 18
-1455 l20 -55 55 -7 c30 -4 386 -9 790 -12 1111 -9 1763 -16 2095 -25 241 -6
305 -5 327 6 21 10 107 13 370 14 449 1 469 1 484 -12 10 -8 12 -6 9 11 -3 14
0 20 8 17 7 -2 11 -11 11 -20 -1 -10 4 -13 13 -10 10 4 11 9 4 16 -7 7 1 19
25 37 31 25 42 28 117 29 138 1 152 4 187 41 29 31 33 32 81 27 47 -6 53 -4
77 23 18 20 41 31 70 36 29 4 48 14 58 29 10 16 29 24 63 29 37 5 50 12 59 30
6 13 23 27 38 30 26 7 111 73 219 171 28 25 55 49 60 53 6 4 30 33 54 65 24
32 52 62 62 67 9 5 22 24 28 42 7 18 21 42 31 53 39 39 70 84 85 118 8 20 24
38 35 42 21 7 23 12 20 61 -1 23 8 42 30 67 21 25 34 52 39 87 5 29 17 60 30
73 17 19 21 36 21 88 0 82 23 130 67 143 28 9 34 16 42 55 7 34 6 47 -5 58
-25 25 -29 64 -28 253 2 263 3 282 20 307 21 32 9 73 -21 73 -37 0 -65 44 -66
104 -1 83 -12 132 -39 166 -16 21 -25 46 -26 72 -1 29 -8 46 -27 64 -20 19
-27 34 -27 63 0 34 -5 42 -35 60 -29 17 -35 26 -35 55 0 26 -5 36 -20 41 -21
7 -37 46 -25 65 4 6 11 25 15 42 9 29 8 30 -9 14 -9 -9 -33 -16 -51 -16 -18 0
-57 -11 -85 -25 -29 -13 -86 -35 -126 -49 -41 -13 -88 -32 -106 -40 -17 -9
-71 -24 -119 -32 -48 -8 -104 -22 -123 -31 -20 -8 -81 -21 -135 -29 -69 -9
-108 -19 -127 -33 -16 -12 -42 -21 -58 -21 -17 0 -51 -7 -76 -16 -26 -8 -65
-14 -88 -12 -39 3 -42 1 -45 -24 -5 -41 13 -65 53 -71 27 -4 51 -22 105 -79
39 -40 70 -77 70 -83 0 -6 11 -26 25 -45 14 -19 25 -41 25 -50 0 -8 14 -27 30
-42 23 -20 30 -35 30 -62 0 -21 -6 -38 -15 -43 -13 -8 -13 -14 2 -52 l17 -43
17 23 17 22 11 -22 c19 -35 24 -112 11 -174 -9 -43 -9 -75 0 -132 15 -96 2
-143 -40 -151 -16 -4 -32 -16 -38 -29 -9 -19 -7 -26 9 -41 39 -36 13 -108 -50
-134 -28 -11 -30 -16 -28 -59 2 -42 -1 -47 -28 -61 -16 -8 -57 -41 -90 -73
-33 -31 -67 -57 -76 -57 -9 0 -37 -16 -63 -37 -39 -30 -54 -36 -90 -35 -34 2
-49 -3 -71 -24 -26 -24 -33 -26 -79 -19 -63 9 -85 9 -421 2 -148 -3 -743 -6
-1320 -7 -747 -1 -1058 2 -1079 10 -16 6 -48 8 -71 4 -34 -5 -45 -2 -56 13 -8
10 -23 23 -34 29 -11 6 -26 23 -33 37 -7 15 -17 27 -21 27 -5 0 -14 20 -21 46
-10 34 -10 48 -1 57 15 15 14 42 -5 78 -12 24 -13 37 -4 64 17 51 16 2635 -1
2667 -7 12 -13 50 -13 83 -1 52 -4 60 -21 62 -13 2 -52 -26 -108 -75z M9444
4604 c3 -9 6 -27 6 -40 0 -13 5 -24 10 -24 11 0 13 39 4 64 -3 9 -11 16 -16
16 -6 0 -7 -7 -4 -16z"/>
</g>
</svg>